<svg id="_x33_0" enable-background="new 0 0 64 64" height="512" viewBox="0 0 64 64" width="512" xmlns="http://www.w3.org/2000/svg"><g><path d="m28 34c-.552 0-1-.449-1-1h-2c0 1.654 1.346 3 3 3s3-1.346 3-3h-2c0 .551-.448 1-1 1z"/><path d="m36 34c-.552 0-1-.449-1-1h-2c0 1.654 1.346 3 3 3s3-1.346 3-3h-2c0 .551-.448 1-1 1z"/><path d="m53 42h-6v-2h5c1.654 0 3-1.346 3-3s-1.346-3-3-3h-1v2h1c.552 0 1 .449 1 1s-.448 1-1 1h-5v-6h10c3.309 0 6-2.691 6-6 0-3.085-2.341-5.631-5.339-5.962.22-.993.339-2.009.339-3.038 0-7.72-6.28-14-14-14-3.496 0-6.77 1.258-9.337 3.566-2.839-3.505-7.117-5.566-11.663-5.566-7.955 0-14.483 6.224-14.971 14.059-3.955.48-7.029 3.858-7.029 7.941 0 4.411 3.589 8 8 8h8v7h-10v2h10v2h-6v2h6v7.359c-.89.593-1.7 1.318-2.401 2.159-1.676 2.013-2.599 4.563-2.599 7.18v2.302h40v-2.302c0-2.618-.923-5.167-2.599-7.18-.701-.841-1.511-1.565-2.401-2.159v-7.359h6c4.411 0 8 3.589 8 8 0 2.206-1.794 4-4 4s-4-1.794-4-4c0-1.103.897-2 2-2s2 .897 2 2h2c0-2.206-1.794-4-4-4s-4 1.794-4 4c0 3.309 2.691 6 6 6s6-2.691 6-6c0-5.514-4.486-10-10-10zm-50-19c0-3.309 2.691-6 6-6h1v-1c0-7.168 5.832-13 13-13 4.282 0 8.29 2.11 10.721 5.645l.702 1.02.85-.9c2.29-2.428 5.39-3.765 8.727-3.765 6.617 0 12 5.383 12 12 0 1.083-.152 2.149-.435 3.181-2.616.645-4.565 3.006-4.565 5.819h2c0-2.206 1.794-4 4-4s4 1.794 4 4-1.794 4-4 4h-10c0-8.271-6.729-15-15-15-7.934 0-14.431 6.195-14.949 14h-8.051c-3.309 0-6-2.691-6-6zm44.864 31.799c1.377 1.653 2.136 3.748 2.136 5.899v.302h-6v-4h-2v4h-20v-4h-2v4h-6v-.302c0-2.151.759-4.246 2.136-5.899 1.531-1.837 3.684-2.995 6.062-3.259l.253-.028.598 1.793c.735 2.21 2.796 3.695 5.126 3.695 1.443 0 2.801-.563 3.822-1.583l.003-.003.003.003c1.021 1.021 2.379 1.583 3.822 1.583 2.33 0 4.391-1.485 5.127-3.696l.598-1.793.253.028c2.378.265 4.53 1.422 6.061 3.26zm-21.166-3.76 3.795 3.036c-.632.592-1.448.925-2.318.925-1.468 0-2.766-.936-3.23-2.329l-.462-1.386zm13.83-13.042v.003h-16.972c-.002-.026-.006-.052-.008-.078l-.369-7.381c.548.283 1.162.459 1.821.459 3.01 0 5.635-1.673 7-4.136 1.365 2.463 3.99 4.136 7 4.136h1.939zm-.371 2.003c-1.076 3.486-4.318 6-8.117 6-3.812 0-7.046-2.511-8.118-6zm-.639 11.286-.462 1.386c-.465 1.392-1.763 2.328-3.231 2.328-.87 0-1.686-.333-2.319-.924l3.795-3.036zm-7.478-3.286c1.15 0 2.255-.195 3.294-.54l.54 2.16-3.874 3.099-3.874-3.099.545-2.183c1.06.359 2.19.563 3.369.563zm9.983 1.552-4.222-.469-.612-2.447c3.012-1.703 5.118-4.844 5.335-8.523l.537-9.113h-4.061c-3.309 0-6-2.691-6-6v-4h-2v4c0 3.309-2.691 6-6 6-1.092 0-1.981-.881-1.997-1.97l-.002-.04c.006-1.098.9-1.99 1.999-1.99v-2c-2.206 0-4 1.794-4 4 0 .017.005.033.005.05h-.004l.549 10.972c.185 3.698 2.266 6.857 5.269 8.58l-.621 2.481-4.222.469c-1.035.115-2.033.375-2.977.756v-20.308c0-7.168 5.832-13 13-13s13 5.832 13 13v20.308c-.942-.381-1.94-.641-2.976-.756z"/><path d="m5 42h4v2h-4z"/></g></svg>