<?xml version="1.0" encoding="UTF-8" standalone="no"?>
<svg
   id="_x33_0"
   enable-background="new 0 0 64 64"
   height="512"
   viewBox="0 0 64 64"
   width="512"
   version="1.1"
   sodipodi:docname="4-Unhealthy-White.svg"
   inkscape:version="1.1 (c68e22c387, 2021-05-23)"
   xmlns:inkscape="http://www.inkscape.org/namespaces/inkscape"
   xmlns:sodipodi="http://sodipodi.sourceforge.net/DTD/sodipodi-0.dtd"
   xmlns="http://www.w3.org/2000/svg"
   xmlns:svg="http://www.w3.org/2000/svg">
  <defs
     id="defs368" />
  <sodipodi:namedview
     id="namedview366"
     pagecolor="#ffffff"
     bordercolor="#666666"
     borderopacity="1.0"
     inkscape:pageshadow="2"
     inkscape:pageopacity="0.0"
     inkscape:pagecheckerboard="0"
     showgrid="false"
     inkscape:zoom="1"
     inkscape:cx="393.5"
     inkscape:cy="160.5"
     inkscape:window-width="1920"
     inkscape:window-height="1027"
     inkscape:window-x="1912"
     inkscape:window-y="-8"
     inkscape:window-maximized="1"
     inkscape:current-layer="g363" />
  <g
     id="g363">
    <path
       d="m32 26c-2.757 0-5 2.243-5 5s2.243 5 5 5 5-2.243 5-5-2.243-5-5-5zm2.816 4h-1.816v-1.816c.847.302 1.514.969 1.816 1.816zm-3.816-1.816v1.816h-1.816c.302-.847.969-1.514 1.816-1.816zm-1.816 3.816h1.816v1.816c-.847-.302-1.514-.969-1.816-1.816zm3.816 1.816v-1.816h1.816c-.302.847-.969 1.514-1.816 1.816z"
       id="path355"
       style="fill:#e6e6e6" />
    <path
       d="m 37.000642,18.000687 c -0.552,6.7e-5 -1.000054,-0.44888 -1.00012,-0.99988 l -2,2.36e-4 c 1.98e-4,1.654 1.34636,2.999838 3.00036,2.99964 1.654,-1.98e-4 2.999839,-1.34636 2.99964,-3.00036 l -1.999999,2.45e-4 c 6.5e-5,0.551 -0.447881,1.000054 -0.999881,1.00012 z"
       id="path357"
       style="fill:#e6e6e6" />
    <path
       d="m 28.000126,17.000094 c -5.6e-5,0.551001 -0.448088,0.999961 -1.000089,0.999912 -0.552,-5.8e-5 -0.99996,-0.449088 -0.999913,-1.000087 l -1.999999,-2.43e-4 c -1.37e-4,1.653999 1.345737,3.000117 2.999736,3.000264 1.654001,1.37e-4 3.000119,-1.345737 3.000264,-2.999737 z"
       id="path359"
       style="fill:#e6e6e6" />
    <path
       d="m45.157 44.412-6.157-1.232v-.18c.911 0 1.769-.355 2.414-1l4.586-4.585c.645-.645 1-1.502 1-2.415s-.355-1.77-1-2.414l-.586-.586c-.752-.75-1.826-1.051-2.848-.927.769-1.59 1.238-3.303 1.387-5.072h.091c2.206 0 4-1.794 4-4 0-.944-.342-1.801-.891-2.486l.445-1.785c.267-1.067.402-2.166.402-3.265 0-7.424-6.041-13.465-13.466-13.465h-4.149c-3.523 0-6.663 2.023-8.126 5.193l-.558.186c-3.41 1.137-5.701 4.316-5.701 7.911 0 .535.053 1.073.155 1.6l.706 3.609c-.557.687-.905 1.551-.905 2.502 0 2.206 1.794 4 4 4h.091c.148 1.77.618 3.483 1.387 5.072-1.022-.123-2.096.177-2.848.928l-.586.584c-.645.645-1 1.502-1 2.415s.355 1.77 1 2.414l4.586 4.586c.646.645 1.503 1 2.414 1v.18l-6.157 1.231c-5.124 1.026-8.843 5.562-8.843 10.787v7.802h44v-7.802c0-5.225-3.719-9.761-8.843-10.786zm-9.992-6.412h-6.33c-.162-.527-.435-1.014-.835-1.414l-3.657-3.658c.481-.661.867-1.394 1.123-2.165l.901-2.703c.81-2.429 3.073-4.06 5.633-4.06s4.823 1.631 5.633 4.06l.9 2.702c.257.772.643 1.506 1.124 2.167l-3.657 3.657c-.4.4-.673.887-.835 1.414zm-1.445 2-.31 1.242c-.113.446-.512.758-.972.758h-.877c-.46 0-.858-.312-.971-.758l-.31-1.242zm-5.443-27.522c.567 1.502 1.961 2.62 3.645 2.749l7.302.51c1.567.109 2.793 1.425 2.791 2.997l-.007 6.054c-.002 2.021-.492 3.979-1.416 5.75-.057-.135-.115-.269-.161-.408l-.901-2.703c-1.083-3.246-4.108-5.427-7.53-5.427s-6.447 2.181-7.529 5.427l-.902 2.704c-.046.138-.104.272-.16.407-.924-1.77-1.414-3.728-1.416-5.749l-.007-6.073c-.003-1.91 1.059-3.626 2.768-4.479zm15.723 20.936.586.586c.268.267.414.622.414 1s-.146.733-.414 1l-4.586 4.585c-.535.535-1.465.535-2 0l-.586-.585c-.268-.267-.414-.622-.414-1s.146-.733.414-1l4.586-4.585c.268-.268.622-.415 1-.415s.732.147 1 .414zm.044-9.414h-.035l.005-4h.031c1.103 0 2 .897 2 2s-.899 2-2.001 2zm-13.659-21h4.149c6.322 0 11.466 5.144 11.466 11.465 0 .936-.115 1.871-.342 2.78l-.252 1.009c-.427-.155-.882-.254-1.362-.254h-.1c-.34-2.28-2.22-4.093-4.582-4.258l-7.294-.509c-1.16-.089-2.068-1.07-2.068-2.234 0-1.102.901-1.999 2.085-1.999.512 0 .992.199 1.354.562.362.361.561.843.561 1.355v.083l2-.082c.001-1.046-.406-2.03-1.146-2.771-.74-.739-1.723-1.147-2.845-1.147-1.987 0-3.629 1.453-3.943 3.348l-1.291.644-2.63-4.064c1.158-2.395 3.547-3.928 6.24-3.928zm-8.051 5.276.247-.082 2.393 3.697-1.113.555c-2.176 1.086-3.588 3.174-3.826 5.554h-.078c-.459 0-.893.094-1.304.237l-.534-2.732c-.079-.4-.119-.809-.119-1.215 0-2.733 1.741-5.15 4.334-6.014zm-4.378 13.724c0-1.103.897-2 2-2h.031l.004 4h-.035c-1.102 0-2-.897-2-2zm6.044 18.586-4.586-4.586c-.268-.267-.414-.622-.414-1s.146-.733.414-1l.586-.585c.268-.268.622-.415 1-.415s.732.147 1 .414l4.586 4.586c.268.267.414.622.414 1s-.146.733-.414 1l-.586.585c-.535.536-1.465.535-2 .001zm3.414 1.414.586-.585c.166-.166.312-.348.438-.54l.213.853c.334 1.337 1.532 2.272 2.911 2.272h.877c1.379 0 2.576-.935 2.91-2.272l.213-.853c.127.192.272.373.438.539l.586.586c.128.128.27.235.414.34v1.344c-1.08 1.456-2.78 2.316-4.605 2.316h-.789c-1.826 0-3.526-.86-4.606-2.316v-1.344c.144-.104.286-.212.414-.34zm24.586 19h-6v-8h-2v8h-24v-8h-2v8h-6v-5.802c0-4.275 3.043-7.987 7.235-8.826l6.349-1.27c1.461 1.82 3.66 2.897 6.021 2.897h.789c2.361 0 4.56-1.077 6.021-2.897l6.349 1.27c4.193.839 7.236 4.551 7.236 8.826z"
       id="path361"
       style="fill:#e6e6e6" />
  </g>
</svg>
