<?xml version="1.0" encoding="UTF-8" standalone="no"?>
<svg
   id="_x33_0"
   enable-background="new 0 0 64 64"
   height="512"
   viewBox="0 0 64 64"
   width="512"
   version="1.1"
   sodipodi:docname="5-Very_Unhealty.svg"
   inkscape:version="1.1 (c68e22c387, 2021-05-23)"
   xmlns:inkscape="http://www.inkscape.org/namespaces/inkscape"
   xmlns:sodipodi="http://sodipodi.sourceforge.net/DTD/sodipodi-0.dtd"
   xmlns="http://www.w3.org/2000/svg"
   xmlns:svg="http://www.w3.org/2000/svg">
  <defs
     id="defs782" />
  <sodipodi:namedview
     id="namedview780"
     pagecolor="#ffffff"
     bordercolor="#666666"
     borderopacity="1.0"
     inkscape:pageshadow="2"
     inkscape:pageopacity="0.0"
     inkscape:pagecheckerboard="0"
     showgrid="false"
     inkscape:zoom="1.1628592"
     inkscape:cx="150.92111"
     inkscape:cy="288.513"
     inkscape:window-width="1920"
     inkscape:window-height="1027"
     inkscape:window-x="1912"
     inkscape:window-y="-8"
     inkscape:window-maximized="1"
     inkscape:current-layer="_x33_0" />
  <g
     id="g777">
    <path
       d="m36.707 32.293-1.293-1.293 1.293-1.293-1.414-1.414-2.707 2.707 2.707 2.707z"
       id="path741"
       style="fill:#e6e6e6" />
    <path
       d="m27.293 29.707 1.293 1.293-1.293 1.293 1.414 1.414 2.707-2.707-2.707-2.707z"
       id="path743"
       style="fill:#e6e6e6" />
    <path
       d="m13 61c-2.206 0-4-1.794-4-4s1.794-4 4-4v-2c-2.581 0-4.78 1.641-5.625 3.932-1.355-.288-2.375-1.492-2.375-2.932 0-1.654 1.346-3 3-3v-2c-2.757 0-5 2.243-5 5 0 .629.13 1.226.343 1.781-1.429.902-2.343 2.479-2.343 4.219 0 2.757 2.243 5 5 5 1.235 0 2.415-.463 3.322-1.269 1.017.792 2.292 1.269 3.678 1.269 1.905 0 3.654-.875 4.8-2.399l-1.6-1.201c-.763 1.017-1.93 1.6-3.2 1.6zm-7 0c-1.654 0-3-1.346-3-3 0-1.046.55-1.994 1.41-2.535.69.715 1.585 1.229 2.595 1.434 0 .034-.005.067-.005.101 0 1.202.359 2.32.97 3.26-.541.471-1.24.74-1.97.74z"
       id="path745"
       style="fill:#e6e6e6" />
    <path
       d="m13 31h-2c0 1.654-1.346 3-3 3s-3-1.346-3-3 1.346-3 3-3v-2c-2.757 0-5 2.243-5 5 0 2.054 1.247 3.82 3.023 4.588-.01.138-.023.274-.023.412 0 3.309 2.691 6 6 6v-2c-2.206 0-4-1.794-4-4 2.757 0 5-2.243 5-5z"
       id="path747"
       style="fill:#e6e6e6" />
    <path
       d="m7 21v-2c-2.206 0-4-1.794-4-4s1.794-4 4-4c.097 0 .19.024.286.031.571 2.144 2.01 3.985 3.992 5.034-.177.616-.278 1.263-.278 1.935 0 3.86 3.14 7 7 7v-2c-2.757 0-5-2.243-5-5s2.243-5 5-5c1.678 0 3.236.836 4.168 2.236l1.665-1.107c-1.303-1.96-3.483-3.129-5.833-3.129-2.479 0-4.656 1.299-5.9 3.249-1.882-1.046-3.1-3.058-3.1-5.249 0-3.309 2.691-6 6-6s6 2.691 6 6h2c0-4.411-3.589-8-8-8s-8 3.589-8 8c-3.309 0-6 2.691-6 6s2.691 6 6 6z"
       id="path749"
       style="fill:#e6e6e6" />
    <path
       d="m1 41h2v2h-2z"
       id="path751"
       style="fill:#e6e6e6" />
    <path
       d="m7 43h2v2h-2z"
       id="path753"
       style="fill:#e6e6e6" />
    <path
       d="m3 45h2v2h-2z"
       id="path755"
       style="fill:#e6e6e6" />
    <path
       d="m48 47.86c0-1.546-.573-2.962-1.53-4.058 1.149-.881 2.011-2.082 2.479-3.486l.253-.761-.688-.413c-2.784-1.67-4.514-4.725-4.514-7.973v-4.169c0-6.617-5.383-12-12-12s-12 5.383-12 12v4.169c0 3.248-1.73 6.303-4.515 7.974l-.688.413.253.761c.468 1.404 1.33 2.605 2.479 3.486-.956 1.095-1.529 2.512-1.529 4.057 0 .889.197 1.786.569 2.593l4.051 8.777c1.057 2.29 3.369 3.77 5.892 3.77 2.311 0 4.339-1.219 5.488-3.043 1.15 1.824 3.177 3.043 5.488 3.043 2.522 0 4.835-1.479 5.892-3.77l4.051-8.777c.372-.807.569-1.704.569-2.593zm-26-16.691v-4.169c0-5.514 4.486-10 10-10s10 4.486 10 10v4.169c0 3.657 1.805 7.113 4.762 9.215-.432.866-1.097 1.58-1.919 2.099-.394-.22-.806-.416-1.254-.55l-5.757-1.727-.436-1.746c-.037-.148-.09-.288-.146-.426 1.735-1.512 2.75-3.705 2.75-6.034v-4.586c0-.812-.232-1.583-.639-2.261.4-.623.639-1.359.639-2.153h-2c0 1.103-.897 2-2 2h-4c-1.103 0-2-.897-2-2s.897-2 2-2v-2c-1.983 0-3.621 1.454-3.934 3.349l-1.302.651c-1.705.852-2.764 2.566-2.764 4.472v4.528c0 2.329 1.015 4.522 2.75 6.033-.056.138-.109.278-.146.426l-.436 1.746-5.758 1.727c-.448.135-.86.33-1.254.55-.821-.519-1.487-1.232-1.918-2.099 2.957-2.101 4.762-5.557 4.762-9.214zm9 1.831v3.25c-.384-.16-.805-.25-1.246-.25-.628 0-1.216.188-1.719.503-1.286-1.133-2.035-2.768-2.035-4.503v-4.528c0-1.144.635-2.172 1.658-2.683l.631-.316c.589 1.477 2.027 2.527 3.711 2.527h4c.662 0 1.278-.177 1.829-.463.109.278.171.576.171.877v4.586c0 1.735-.749 3.37-2.035 4.503-.503-.315-1.091-.503-1.719-.503-.442 0-.862.09-1.246.25v-3.25zm-6.647 11.942.647 1.294v1.905l-2.618-4.712 1.66-.498c-.026.169-.042.341-.042.516 0 .516.122 1.033.353 1.495zm15.294 0c.231-.462.353-.979.353-1.495 0-.175-.016-.347-.042-.516l1.66.498-2.618 4.712v-1.905zm-13.135 16.058c-1.745 0-3.345-1.023-4.075-2.607l-4.051-8.777c-.253-.547-.386-1.154-.386-1.756 0-1.667.964-3.127 2.445-3.801l4.555 8.2v4.741h2v-11.236l-.858-1.716c-.093-.186-.142-.393-.142-.601 0-.512.284-.971.742-1.2l1.117-.559.687-2.744c.138-.556.635-.944 1.208-.944.687 0 1.246.559 1.246 1.246v17.266c0 2.474-2.014 4.488-4.488 4.488zm19.102-11.384-4.051 8.777c-.73 1.584-2.33 2.607-4.075 2.607-2.474 0-4.488-2.014-4.488-4.488v-17.266c0-.687.559-1.246 1.246-1.246.573 0 1.07.388 1.209.944l.687 2.744 1.117.559c.457.229.741.688.741 1.2 0 .208-.049.415-.142.6l-.858 1.717v11.236h2v-4.741l4.555-8.2c1.481.674 2.445 2.134 2.445 3.801 0 .602-.133 1.209-.386 1.756z"
       id="path757"
       style="fill:#e6e6e6" />
    <path
       d="m60.657 53.781c.213-.555.343-1.152.343-1.781 0-2.757-2.243-5-5-5v2c1.654 0 3 1.346 3 3 0 1.44-1.02 2.644-2.375 2.932-.845-2.291-3.044-3.932-5.625-3.932v2c2.206 0 4 1.794 4 4s-1.794 4-4 4c-1.27 0-2.437-.583-3.2-1.601l-1.6 1.201c1.146 1.525 2.895 2.4 4.8 2.4 1.386 0 2.661-.477 3.678-1.269.907.806 2.087 1.269 3.322 1.269 2.757 0 5-2.243 5-5 0-1.74-.914-3.317-2.343-4.219zm-2.657 7.219c-.73 0-1.429-.269-1.97-.74.611-.94.97-2.058.97-3.26 0-.034-.005-.067-.005-.101 1.01-.205 1.905-.719 2.595-1.434.86.541 1.41 1.489 1.41 2.535 0 1.654-1.346 3-3 3z"
       id="path759"
       style="fill:#e6e6e6" />
    <path
       d="m56 26v2c1.654 0 3 1.346 3 3s-1.346 3-3 3-3-1.346-3-3h-2c0 2.757 2.243 5 5 5 0 2.206-1.794 4-4 4v2c3.309 0 6-2.691 6-6 0-.138-.013-.274-.023-.412 1.776-.768 3.023-2.534 3.023-4.588 0-2.757-2.243-5-5-5z"
       id="path761"
       style="fill:#e6e6e6" />
    <path
       d="m51.9 14.249c-1.244-1.95-3.421-3.249-5.9-3.249-2.35 0-4.53 1.169-5.833 3.129l1.665 1.107c.932-1.4 2.49-2.236 4.168-2.236 2.757 0 5 2.243 5 5s-2.243 5-5 5v2c3.86 0 7-3.14 7-7 0-.672-.101-1.319-.278-1.935 1.982-1.049 3.421-2.89 3.992-5.034.096-.007.189-.031.286-.031 2.206 0 4 1.794 4 4s-1.794 4-4 4v2c3.309 0 6-2.691 6-6s-2.691-6-6-6c0-4.411-3.589-8-8-8s-8 3.589-8 8h2c0-3.309 2.691-6 6-6s6 2.691 6 6c0 2.191-1.218 4.203-3.1 5.249z"
       id="path763"
       style="fill:#e6e6e6" />
    <path
       d="m61 41h2v2h-2z"
       id="path765"
       style="fill:#e6e6e6" />
    <path
       d="m55 43h2v2h-2z"
       id="path767"
       style="fill:#e6e6e6" />
    <path
       d="m59 45h2v2h-2z"
       id="path769"
       style="fill:#e6e6e6" />
    <path
       d="m28 9h2v2h-2z"
       id="path771"
       style="fill:#e6e6e6" />
    <path
       d="m34 7h2v2h-2z"
       id="path773"
       style="fill:#e6e6e6" />
    <path
       d="m30 3h2v2h-2z"
       id="path775"
       style="fill:#e6e6e6" />
  </g>
</svg>
